<?xml version="1.0" encoding="utf-8"?>
<!-- Generator: Adobe Illustrator 27.7.0, SVG Export Plug-In . SVG Version: 6.00 Build 0)  -->
<svg version="1.1" id="Camada_1" xmlns="http://www.w3.org/2000/svg" xmlns:xlink="http://www.w3.org/1999/xlink" x="0px" y="0px"
	 viewBox="0 0 287.2 71.4" style="enable-background:new 0 0 287.2 71.4;" xml:space="preserve">
<style type="text/css">
	.st0{display:none;fill:#B53528;}
	.st1{display:none;}
	.st2{display:inline;}
	.st3{clip-path:url(#SVGID_00000132790087440874994770000004427102893201922696_);}
	.st4{clip-path:url(#SVGID_00000098930928243883903780000014490884552303685048_);fill:#00906A;}
	
		.st5{clip-path:url(#SVGID_00000157305841570875139120000014303226037836169125_);fill:none;stroke:#00906A;stroke-width:1.0129;stroke-miterlimit:10;}
	.st6{clip-path:url(#SVGID_00000036930401616642274010000006299198442428941706_);fill:#00906A;}
	
		.st7{clip-path:url(#SVGID_00000078759857742653705600000016870608246639400872_);fill:none;stroke:#00906A;stroke-width:1.0129;stroke-miterlimit:10;}
	.st8{clip-path:url(#SVGID_00000011017127995171904590000007405068078576302721_);fill:#B43628;}
	
		.st9{clip-path:url(#SVGID_00000056403519062566565090000006520151288837066396_);fill:none;stroke:#B53528;stroke-width:1.0129;stroke-miterlimit:10;}
	.st10{clip-path:url(#SVGID_00000170978530302941652880000015972174701454124471_);fill:#B43628;}
	
		.st11{clip-path:url(#SVGID_00000044157266217378570900000009364866566092985767_);fill:none;stroke:#B53528;stroke-width:1.0129;stroke-miterlimit:10;}
	.st12{clip-path:url(#SVGID_00000121971221869637079180000011534872729178663868_);fill:#00906A;}
	
		.st13{clip-path:url(#SVGID_00000155855701908213347730000017341684169023537298_);fill:none;stroke:#00906A;stroke-width:1.0129;stroke-miterlimit:10;}
	.st14{clip-path:url(#SVGID_00000145045574416248972780000009721440200970875568_);fill:#B43628;}
	
		.st15{clip-path:url(#SVGID_00000013883791316708088120000005125359662195287995_);fill:none;stroke:#B43628;stroke-width:1.0129;stroke-miterlimit:10;}
	.st16{clip-path:url(#SVGID_00000041997079986929315150000001746291376696934531_);fill:#B43628;}
	
		.st17{clip-path:url(#SVGID_00000048474193814904468690000016729319187506514354_);fill:none;stroke:#B43628;stroke-width:1.0129;stroke-miterlimit:10;}
	.st18{clip-path:url(#SVGID_00000090270731460634955630000015785999587582718374_);fill:#00906A;}
	
		.st19{clip-path:url(#SVGID_00000070832260024257434190000001795951627202064560_);fill:none;stroke:#00906A;stroke-width:1.0129;stroke-miterlimit:10;}
	.st20{clip-path:url(#SVGID_00000181057386410630424440000013036484354357825420_);fill:#B43628;}
	
		.st21{clip-path:url(#SVGID_00000079454663930495929960000004045804136739554196_);fill:none;stroke:#B43628;stroke-width:1.0129;stroke-miterlimit:10;}
	
		.st22{clip-path:url(#SVGID_00000002345953828627602270000001452121279976554659_);fill:none;stroke:#B43628;stroke-width:3.2413;stroke-miterlimit:10;}
	
		.st23{clip-path:url(#SVGID_00000145045327540937004800000009690357683181467524_);fill:none;stroke:#B43628;stroke-width:3.2413;stroke-miterlimit:10;}
	
		.st24{clip-path:url(#SVGID_00000031178018468480160800000012416567506648480166_);fill:none;stroke:#00906A;stroke-width:3.2413;stroke-miterlimit:10;}
	
		.st25{clip-path:url(#SVGID_00000018195653536666489480000008772672525836853163_);fill:none;stroke:#00906A;stroke-width:3.2413;stroke-miterlimit:10;}
	
		.st26{clip-path:url(#SVGID_00000015347984297476553420000013256260018968287405_);fill:none;stroke:#B43628;stroke-width:3.2413;stroke-miterlimit:10;}
	.st27{clip-path:url(#SVGID_00000140718669951887924840000003708364687710514857_);fill:#B43628;}
	
		.st28{clip-path:url(#SVGID_00000097477787184305932460000004482570128020026035_);fill:none;stroke:#B43628;stroke-width:1.0129;stroke-miterlimit:10;}
	.st29{fill:#CC3366;}
</style>
<g>
	<path d="M22,68.8c-1.7,1.5-4.5,2.3-8.4,2.3H0.5V26.3h12.4c3.8,0,6.7,0.8,8.7,2.3s2.9,4.1,2.9,7.7V61C24.6,64.7,23.7,67.3,22,68.8z
		 M17.7,32.3c-0.9-0.8-2-1.2-3.4-1.2H6.1v35.2h8.2c1.6,0,2.8-0.4,3.6-1.1c0.8-0.8,1.1-1.9,1.1-3.5V35.7C19,34.3,18.6,33.2,17.7,32.3
		z"/>
	<path d="M53.2,68.4c-2,1.8-4.8,2.7-8.5,2.7h-1.6c-3.7,0-6.6-0.9-8.5-2.7s-3-4.5-3-8.2V26.3h5.6v35.1c0,1.3,0.5,2.5,1.5,3.4
		s2.3,1.4,3.8,1.4h2.9c1.6,0,2.9-0.5,3.8-1.4c1-0.9,1.5-2.1,1.5-3.4V26.3h5.6v33.9C56.2,63.8,55.2,66.6,53.2,68.4z"/>
	<path d="M68.7,52.5v18.6h-5.6V26.3h12c3.6,0,6.4,0.8,8.2,2.4s2.8,4.1,2.8,7.6v6.1c0,4.8-1.9,7.8-5.8,9l8.9,19.6h-6.1L75,52.5
		L68.7,52.5L68.7,52.5z M79.5,32.2c-0.8-0.7-1.9-1.1-3.6-1.1h-7.2v16.6H76c1.6,0,2.8-0.4,3.6-1.1c0.8-0.8,1.1-1.9,1.1-3.5v-7.4
		C80.6,34.1,80.3,32.9,79.5,32.2z"/>
	<path d="M103.4,59.8l-2.5,11.3h-5.7L106,26.3h7.4L124,71.1h-5.7l-2.4-11.3C115.8,59.8,103.4,59.8,103.4,59.8z M114.8,55l-5.2-24.5
		L104.4,55H114.8z"/>
	<path class="st0" d="M182.5,26.3V31h-15.8v14.7h14.2v4.7h-14.2v16.1h15.8v4.7h-21.4V26.3H182.5z"/>
	<path class="st0" d="M208.2,68.4c-2,1.8-4.8,2.7-8.5,2.7h-9.1v-4.9h9.7c1.6,0,2.9-0.5,3.8-1.4c1-0.9,1.5-2.1,1.5-3.4v-6.7
		c0-1.3-0.3-2.3-1-3.1c-0.7-0.8-1.6-1.2-3-1.2h-1.9c-3.2,0-5.6-0.9-7.5-2.8c-1.8-1.9-2.8-4.5-2.8-8.1v-2.4c0-3.6,1-6.4,3-8.2
		c2-1.8,4.8-2.7,8.5-2.7h9.1v4.9h-9.8c-1.6,0-2.9,0.5-3.8,1.4c-1,0.9-1.5,2.1-1.5,3.4v4.9c0,1.3,0.4,2.4,1.3,3.3
		c0.9,0.9,2,1.3,3.3,1.3h1.9c3,0,5.4,0.9,7.1,2.6c1.7,1.8,2.5,4.4,2.5,7.9v4.2C211.1,63.8,210.1,66.6,208.2,68.4z"/>
	<path class="st0" d="M236.8,68.4c-2,1.8-4.8,2.7-8.5,2.7h-9.1v-4.9h9.7c1.6,0,2.9-0.5,3.8-1.4c1-0.9,1.5-2.1,1.5-3.4v-6.7
		c0-1.3-0.3-2.3-1-3.1c-0.7-0.8-1.6-1.2-3-1.2h-1.9c-3.2,0-5.6-0.9-7.5-2.8c-1.8-1.9-2.8-4.5-2.8-8.1v-2.4c0-3.6,1-6.4,3-8.2
		c2-1.8,4.8-2.7,8.5-2.7h9.1v4.9H229c-1.6,0-2.9,0.5-3.8,1.4c-1,0.9-1.5,2.1-1.5,3.4v4.9c0,1.3,0.4,2.4,1.3,3.3
		c0.9,0.9,2,1.3,3.3,1.3h1.9c3,0,5.4,0.9,7.1,2.6c1.7,1.8,2.5,4.4,2.5,7.9v4.2C239.8,63.8,238.8,66.6,236.8,68.4z"/>
</g>
<g class="st1">
	<g class="st2">
		<g>
			<defs>
				<rect id="SVGID_1_" x="210.3" y="-15.7" width="101.3" height="101.3"/>
			</defs>
			<clipPath id="SVGID_00000175305080978323043960000010118132578413458048_">
				<use xlink:href="#SVGID_1_"  style="overflow:visible;"/>
			</clipPath>
			<g style="clip-path:url(#SVGID_00000175305080978323043960000010118132578413458048_);">
				<g>
					<defs>
						<rect id="SVGID_00000105384499083185914090000014613325332869748364_" x="210.3" y="-15.7" width="101.3" height="101.3"/>
					</defs>
					<clipPath id="SVGID_00000144307452086313698730000007991605264988864920_">
						<use xlink:href="#SVGID_00000105384499083185914090000014613325332869748364_"  style="overflow:visible;"/>
					</clipPath>
					<path style="clip-path:url(#SVGID_00000144307452086313698730000007991605264988864920_);fill:#00906A;" d="M251,13.5
						c0,1-0.8,1.8-1.8,1.8c-1,0-1.8-0.8-1.8-1.8c0-1,0.8-1.8,1.8-1.8C250.2,11.7,251,12.5,251,13.5"/>
				</g>
				<g>
					<defs>
						<rect id="SVGID_00000018937650702170180840000012354856357304496032_" x="210.3" y="-15.7" width="101.3" height="101.3"/>
					</defs>
					<clipPath id="SVGID_00000127016631935801711560000016933036399930278056_">
						<use xlink:href="#SVGID_00000018937650702170180840000012354856357304496032_"  style="overflow:visible;"/>
					</clipPath>
					
						<path style="clip-path:url(#SVGID_00000127016631935801711560000016933036399930278056_);fill:none;stroke:#00906A;stroke-width:1.0129;stroke-miterlimit:10;" d="
						M251,13.5c0,1-0.8,1.8-1.8,1.8c-1,0-1.8-0.8-1.8-1.8c0-1,0.8-1.8,1.8-1.8C250.2,11.7,251,12.5,251,13.5z"/>
				</g>
				<g>
					<defs>
						<rect id="SVGID_00000060730419483878894210000008410752505151673489_" x="210.3" y="-15.7" width="101.3" height="101.3"/>
					</defs>
					<clipPath id="SVGID_00000000187505888858998570000017034024786987407243_">
						<use xlink:href="#SVGID_00000060730419483878894210000008410752505151673489_"  style="overflow:visible;"/>
					</clipPath>
					<path style="clip-path:url(#SVGID_00000000187505888858998570000017034024786987407243_);fill:#00906A;" d="M266.1,12.6
						c0,1-0.8,1.8-1.8,1.8c-1,0-1.8-0.8-1.8-1.8c0-1,0.8-1.8,1.8-1.8S266.1,11.6,266.1,12.6"/>
				</g>
				<g>
					<defs>
						<rect id="SVGID_00000048466720641021447400000018344288921310244025_" x="210.3" y="-15.7" width="101.3" height="101.3"/>
					</defs>
					<clipPath id="SVGID_00000179621016618691764730000012908961968686149257_">
						<use xlink:href="#SVGID_00000048466720641021447400000018344288921310244025_"  style="overflow:visible;"/>
					</clipPath>
					
						<path style="clip-path:url(#SVGID_00000179621016618691764730000012908961968686149257_);fill:none;stroke:#00906A;stroke-width:1.0129;stroke-miterlimit:10;" d="
						M266.1,12.6c0,1-0.8,1.8-1.8,1.8c-1,0-1.8-0.8-1.8-1.8c0-1,0.8-1.8,1.8-1.8S266.1,11.6,266.1,12.6z"/>
				</g>
				<g>
					<defs>
						<rect id="SVGID_00000148636311666146479200000016074258083768818568_" x="210.3" y="-15.7" width="101.3" height="101.3"/>
					</defs>
					<clipPath id="SVGID_00000181046565477865098980000009322991917940482745_">
						<use xlink:href="#SVGID_00000148636311666146479200000016074258083768818568_"  style="overflow:visible;"/>
					</clipPath>
					<path style="clip-path:url(#SVGID_00000181046565477865098980000009322991917940482745_);fill:#B43628;" d="M266.1,29.5
						c0,1-0.8,1.8-1.8,1.8c-1,0-1.8-0.8-1.8-1.8c0-1,0.8-1.8,1.8-1.8C265.3,27.7,266.1,28.5,266.1,29.5"/>
				</g>
				<g>
					<defs>
						<rect id="SVGID_00000169542301854631421550000006036211503443535283_" x="210.3" y="-15.7" width="101.3" height="101.3"/>
					</defs>
					<clipPath id="SVGID_00000128479866978473103510000003322865060751596182_">
						<use xlink:href="#SVGID_00000169542301854631421550000006036211503443535283_"  style="overflow:visible;"/>
					</clipPath>
					
						<path style="clip-path:url(#SVGID_00000128479866978473103510000003322865060751596182_);fill:none;stroke:#B53528;stroke-width:1.0129;stroke-miterlimit:10;" d="
						M266.1,29.5c0,1-0.8,1.8-1.8,1.8c-1,0-1.8-0.8-1.8-1.8c0-1,0.8-1.8,1.8-1.8C265.3,27.7,266.1,28.5,266.1,29.5z"/>
				</g>
				<g>
					<defs>
						<rect id="SVGID_00000012462503565253084210000000062470956603392959_" x="210.3" y="-15.7" width="101.3" height="101.3"/>
					</defs>
					<clipPath id="SVGID_00000031907757066279353940000002104045698946751895_">
						<use xlink:href="#SVGID_00000012462503565253084210000000062470956603392959_"  style="overflow:visible;"/>
					</clipPath>
					<path style="clip-path:url(#SVGID_00000031907757066279353940000002104045698946751895_);fill:#B43628;" d="M266.1,46.6
						c0,1-0.8,1.8-1.8,1.8c-1,0-1.8-0.8-1.8-1.8c0-1,0.8-1.8,1.8-1.8S266.1,45.6,266.1,46.6"/>
				</g>
				<g>
					<defs>
						<rect id="SVGID_00000053525673751857664920000002354633495792503718_" x="210.3" y="-15.7" width="101.3" height="101.3"/>
					</defs>
					<clipPath id="SVGID_00000043434081208783246690000014660399119650886273_">
						<use xlink:href="#SVGID_00000053525673751857664920000002354633495792503718_"  style="overflow:visible;"/>
					</clipPath>
					
						<path style="clip-path:url(#SVGID_00000043434081208783246690000014660399119650886273_);fill:none;stroke:#B53528;stroke-width:1.0129;stroke-miterlimit:10;" d="
						M266.1,46.6c0,1-0.8,1.8-1.8,1.8c-1,0-1.8-0.8-1.8-1.8c0-1,0.8-1.8,1.8-1.8S266.1,45.6,266.1,46.6z"/>
				</g>
				<g>
					<defs>
						<rect id="SVGID_00000181088078907868170670000018323194387937230249_" x="210.3" y="-15.7" width="101.3" height="101.3"/>
					</defs>
					<clipPath id="SVGID_00000080183651497315911520000005050469918345781158_">
						<use xlink:href="#SVGID_00000181088078907868170670000018323194387937230249_"  style="overflow:visible;"/>
					</clipPath>
					<path style="clip-path:url(#SVGID_00000080183651497315911520000005050469918345781158_);fill:#00906A;" d="M251,21.8
						c0,1-0.8,1.8-1.8,1.8c-1,0-1.8-0.8-1.8-1.8c0-1,0.8-1.8,1.8-1.8S251,20.8,251,21.8"/>
				</g>
				<g>
					<defs>
						<rect id="SVGID_00000021830656230736769620000013349703256096860295_" x="210.3" y="-15.7" width="101.3" height="101.3"/>
					</defs>
					<clipPath id="SVGID_00000018945124939831664360000014498840384537676962_">
						<use xlink:href="#SVGID_00000021830656230736769620000013349703256096860295_"  style="overflow:visible;"/>
					</clipPath>
					
						<path style="clip-path:url(#SVGID_00000018945124939831664360000014498840384537676962_);fill:none;stroke:#00906A;stroke-width:1.0129;stroke-miterlimit:10;" d="
						M251,21.8c0,1-0.8,1.8-1.8,1.8c-1,0-1.8-0.8-1.8-1.8c0-1,0.8-1.8,1.8-1.8S251,20.8,251,21.8z"/>
				</g>
				<g>
					<defs>
						<rect id="SVGID_00000084505331882026254590000001382652333126923165_" x="210.3" y="-15.7" width="101.3" height="101.3"/>
					</defs>
					<clipPath id="SVGID_00000086668410720750485220000008900330063240882849_">
						<use xlink:href="#SVGID_00000084505331882026254590000001382652333126923165_"  style="overflow:visible;"/>
					</clipPath>
					<path style="clip-path:url(#SVGID_00000086668410720750485220000008900330063240882849_);fill:#B43628;" d="M251,56.1
						c0,1-0.8,1.8-1.8,1.8c-1,0-1.8-0.8-1.8-1.8c0-1,0.8-1.8,1.8-1.8S251,55.1,251,56.1"/>
				</g>
				<g>
					<defs>
						<rect id="SVGID_00000119839096638293079200000001583769965837949104_" x="210.3" y="-15.7" width="101.3" height="101.3"/>
					</defs>
					<clipPath id="SVGID_00000048469997199223202480000003296367790339430824_">
						<use xlink:href="#SVGID_00000119839096638293079200000001583769965837949104_"  style="overflow:visible;"/>
					</clipPath>
					
						<path style="clip-path:url(#SVGID_00000048469997199223202480000003296367790339430824_);fill:none;stroke:#B43628;stroke-width:1.0129;stroke-miterlimit:10;" d="
						M251,56.1c0,1-0.8,1.8-1.8,1.8c-1,0-1.8-0.8-1.8-1.8c0-1,0.8-1.8,1.8-1.8S251,55.1,251,56.1z"/>
				</g>
				<g>
					<defs>
						<rect id="SVGID_00000073685647965807323060000006796153667334867646_" x="210.3" y="-15.7" width="101.3" height="101.3"/>
					</defs>
					<clipPath id="SVGID_00000046328646484262107910000013670690798197500326_">
						<use xlink:href="#SVGID_00000073685647965807323060000006796153667334867646_"  style="overflow:visible;"/>
					</clipPath>
					<path style="clip-path:url(#SVGID_00000046328646484262107910000013670690798197500326_);fill:#B43628;" d="M251,64.9
						c0,1-0.8,1.8-1.8,1.8c-1,0-1.8-0.8-1.8-1.8s0.8-1.8,1.8-1.8C250.2,63.1,251,63.9,251,64.9"/>
				</g>
				<g>
					<defs>
						<rect id="SVGID_00000115505410293937155780000014442351571501025939_" x="210.3" y="-15.7" width="101.3" height="101.3"/>
					</defs>
					<clipPath id="SVGID_00000057840822943767511470000012555276970951160975_">
						<use xlink:href="#SVGID_00000115505410293937155780000014442351571501025939_"  style="overflow:visible;"/>
					</clipPath>
					
						<path style="clip-path:url(#SVGID_00000057840822943767511470000012555276970951160975_);fill:none;stroke:#B43628;stroke-width:1.0129;stroke-miterlimit:10;" d="
						M251,64.9c0,1-0.8,1.8-1.8,1.8c-1,0-1.8-0.8-1.8-1.8s0.8-1.8,1.8-1.8C250.2,63.1,251,63.9,251,64.9z"/>
				</g>
				<g>
					<defs>
						<rect id="SVGID_00000052082666564246161900000000033195203593788594_" x="210.3" y="-15.7" width="101.3" height="101.3"/>
					</defs>
					<clipPath id="SVGID_00000146460865482798739490000010070324910967082911_">
						<use xlink:href="#SVGID_00000052082666564246161900000000033195203593788594_"  style="overflow:visible;"/>
					</clipPath>
					<path style="clip-path:url(#SVGID_00000146460865482798739490000010070324910967082911_);fill:#00906A;" d="M258.6,17
						c0,1-0.8,1.8-1.8,1.8c-1,0-1.8-0.8-1.8-1.8c0-1,0.8-1.8,1.8-1.8C257.8,15.2,258.6,16,258.6,17"/>
				</g>
				<g>
					<defs>
						<rect id="SVGID_00000173879866411820695530000007666230464080208275_" x="210.3" y="-15.7" width="101.3" height="101.3"/>
					</defs>
					<clipPath id="SVGID_00000145042586281662852300000001750045930205526196_">
						<use xlink:href="#SVGID_00000173879866411820695530000007666230464080208275_"  style="overflow:visible;"/>
					</clipPath>
					
						<path style="clip-path:url(#SVGID_00000145042586281662852300000001750045930205526196_);fill:none;stroke:#00906A;stroke-width:1.0129;stroke-miterlimit:10;" d="
						M258.6,17c0,1-0.8,1.8-1.8,1.8c-1,0-1.8-0.8-1.8-1.8c0-1,0.8-1.8,1.8-1.8C257.8,15.2,258.6,16,258.6,17z"/>
				</g>
				<g>
					<defs>
						<rect id="SVGID_00000168078478658332880640000009963819147481486493_" x="210.3" y="-15.7" width="101.3" height="101.3"/>
					</defs>
					<clipPath id="SVGID_00000034779158786033845930000012636732044873783689_">
						<use xlink:href="#SVGID_00000168078478658332880640000009963819147481486493_"  style="overflow:visible;"/>
					</clipPath>
					<path style="clip-path:url(#SVGID_00000034779158786033845930000012636732044873783689_);fill:#B43628;" d="M258.6,51.3
						c0,1-0.8,1.8-1.8,1.8c-1,0-1.8-0.8-1.8-1.8s0.8-1.8,1.8-1.8S258.6,50.3,258.6,51.3"/>
				</g>
				<g>
					<defs>
						<rect id="SVGID_00000158737075089717666670000010715382131440967302_" x="210.3" y="-15.7" width="101.3" height="101.3"/>
					</defs>
					<clipPath id="SVGID_00000009569788104442903880000003741189725694810256_">
						<use xlink:href="#SVGID_00000158737075089717666670000010715382131440967302_"  style="overflow:visible;"/>
					</clipPath>
					
						<path style="clip-path:url(#SVGID_00000009569788104442903880000003741189725694810256_);fill:none;stroke:#B43628;stroke-width:1.0129;stroke-miterlimit:10;" d="
						M258.6,51.3c0,1-0.8,1.8-1.8,1.8c-1,0-1.8-0.8-1.8-1.8s0.8-1.8,1.8-1.8S258.6,50.3,258.6,51.3z"/>
				</g>
				<g>
					<defs>
						<rect id="SVGID_00000016066590058491215630000016503256304264411300_" x="210.3" y="-15.7" width="101.3" height="101.3"/>
					</defs>
					<clipPath id="SVGID_00000052792882838140725260000002796724383092509359_">
						<use xlink:href="#SVGID_00000016066590058491215630000016503256304264411300_"  style="overflow:visible;"/>
					</clipPath>
					
						<polyline style="clip-path:url(#SVGID_00000052792882838140725260000002796724383092509359_);fill:none;stroke:#B43628;stroke-width:3.2413;stroke-miterlimit:10;" points="
						256.8,51.3 256.8,68.6 249.2,64.9 					"/>
				</g>
				<g>
					<defs>
						<rect id="SVGID_00000152252680074155337800000005695621398155908513_" x="210.3" y="-15.7" width="101.3" height="101.3"/>
					</defs>
					<clipPath id="SVGID_00000036231416443651648560000017614034284664342150_">
						<use xlink:href="#SVGID_00000152252680074155337800000005695621398155908513_"  style="overflow:visible;"/>
					</clipPath>
					
						<polyline style="clip-path:url(#SVGID_00000036231416443651648560000017614034284664342150_);fill:none;stroke:#B43628;stroke-width:3.2413;stroke-miterlimit:10;" points="
						264.3,29.5 275.8,39.5 264.3,60.5 264.3,46.6 					"/>
				</g>
				<g>
					<defs>
						<rect id="SVGID_00000147220091027449172810000007509790748617305999_" x="210.3" y="-15.7" width="101.3" height="101.3"/>
					</defs>
					<clipPath id="SVGID_00000034086369753922932700000009652148425870946743_">
						<use xlink:href="#SVGID_00000147220091027449172810000007509790748617305999_"  style="overflow:visible;"/>
					</clipPath>
					
						<polyline style="clip-path:url(#SVGID_00000034086369753922932700000009652148425870946743_);fill:none;stroke:#00906A;stroke-width:3.2413;stroke-miterlimit:10;" points="
						256.8,17 263,21.8 249.2,30.3 249.2,21.8 					"/>
				</g>
				<g>
					<defs>
						<rect id="SVGID_00000069359081874155856910000011234461235201573531_" x="210.3" y="-15.7" width="101.3" height="101.3"/>
					</defs>
					<clipPath id="SVGID_00000089549936101402001840000015685467038585346748_">
						<use xlink:href="#SVGID_00000069359081874155856910000011234461235201573531_"  style="overflow:visible;"/>
					</clipPath>
					
						<polyline style="clip-path:url(#SVGID_00000089549936101402001840000015685467038585346748_);fill:none;stroke:#00906A;stroke-width:3.2413;stroke-miterlimit:10;" points="
						249.2,13.5 264.3,3.7 264.3,12.6 					"/>
				</g>
				<g>
					<defs>
						<rect id="SVGID_00000085935733498621522460000007706208695750439046_" x="210.3" y="-15.7" width="101.3" height="101.3"/>
					</defs>
					<clipPath id="SVGID_00000052069554657212789890000003366311654967099557_">
						<use xlink:href="#SVGID_00000085935733498621522460000007706208695750439046_"  style="overflow:visible;"/>
					</clipPath>
					
						<polyline style="clip-path:url(#SVGID_00000052069554657212789890000003366311654967099557_);fill:none;stroke:#B43628;stroke-width:3.2413;stroke-miterlimit:10;" points="
						256.8,42.8 256.8,34.1 249.2,38.8 249.2,56.1 					"/>
				</g>
				<g>
					<defs>
						<rect id="SVGID_00000170268338644192320030000016645439360615355070_" x="210.3" y="-15.7" width="101.3" height="101.3"/>
					</defs>
					<clipPath id="SVGID_00000177475769790329729960000006311544824975493760_">
						<use xlink:href="#SVGID_00000170268338644192320030000016645439360615355070_"  style="overflow:visible;"/>
					</clipPath>
					<path style="clip-path:url(#SVGID_00000177475769790329729960000006311544824975493760_);fill:#B43628;" d="M258.5,42.5
						c0,1-0.8,1.8-1.8,1.8c-1,0-1.8-0.8-1.8-1.8s0.8-1.8,1.8-1.8C257.7,40.7,258.5,41.5,258.5,42.5"/>
				</g>
				<g>
					<defs>
						<rect id="SVGID_00000104702215489476902040000017823557104914987138_" x="210.3" y="-15.7" width="101.3" height="101.3"/>
					</defs>
					<clipPath id="SVGID_00000136396345120745684330000000758135648136854170_">
						<use xlink:href="#SVGID_00000104702215489476902040000017823557104914987138_"  style="overflow:visible;"/>
					</clipPath>
					
						<path style="clip-path:url(#SVGID_00000136396345120745684330000000758135648136854170_);fill:none;stroke:#B43628;stroke-width:1.0129;stroke-miterlimit:10;" d="
						M258.5,42.5c0,1-0.8,1.8-1.8,1.8c-1,0-1.8-0.8-1.8-1.8s0.8-1.8,1.8-1.8C257.7,40.7,258.5,41.5,258.5,42.5z"/>
				</g>
			</g>
		</g>
	</g>
</g>
<polygon class="st29" points="149.1,58.3 149.1,71.1 149.1,71.1 135.1,39.1 135.1,26.3 135.1,26.3 "/>
<rect x="130" y="26.3" width="5.1" height="44.8"/>
<rect x="149.1" y="26.3" width="5.2" height="44.8"/>
<g>
	<g>
		<path class="st29" d="M171.4,71.1v-40h-10.2v-4.9h25.9v4.9H177v40H171.4z"/>
		<path class="st29" d="M198.7,59.8l-2.5,11.3h-5.7l10.8-44.8h7.4l10.6,44.8h-5.7l-2.4-11.3H198.7z M210.2,55l-5.2-24.5L199.8,55
			H210.2z"/>
		<path class="st29" d="M232.3,52.6v18.6h-5.6V26.3h12c3.6,0,6.4,0.8,8.2,2.4c1.9,1.6,2.8,4.1,2.8,7.6v6.1c0,4.8-1.9,7.8-5.8,9
			l8.9,19.7h-6.1l-8.3-18.6H232.3z M243.1,32.2c-0.7-0.7-1.9-1.1-3.6-1.1h-7.2v16.6h7.2c1.6,0,2.8-0.4,3.6-1.1
			c0.7-0.7,1.1-1.9,1.1-3.6v-7.4C244.2,34.1,243.8,32.9,243.1,32.2z"/>
		<path class="st29" d="M269.8,71.1V50.3l-11.5-24h6.1l8.5,18.6l8.5-18.6h5.8l-11.7,24v20.8H269.8z"/>
	</g>
</g>
</svg>
