<?xml version="1.0" encoding="utf-8"?>
<!-- Generator: Adobe Illustrator 27.7.0, SVG Export Plug-In . SVG Version: 6.00 Build 0)  -->
<svg version="1.1" id="Camada_1" xmlns="http://www.w3.org/2000/svg" xmlns:xlink="http://www.w3.org/1999/xlink" x="0px" y="0px"
	 viewBox="0 0 278.5 71.4" style="enable-background:new 0 0 278.5 71.4;" xml:space="preserve">
<style type="text/css">
	.st0{display:none;fill:#B53528;}
	.st1{display:none;}
	.st2{display:inline;}
	.st3{clip-path:url(#SVGID_00000111878359662134033320000011718808059865163675_);}
	.st4{clip-path:url(#SVGID_00000147200458114469173150000007518557324829014169_);fill:#00906A;}
	
		.st5{clip-path:url(#SVGID_00000041288522293881514910000002643163831078398348_);fill:none;stroke:#00906A;stroke-width:1.0129;stroke-miterlimit:10;}
	.st6{clip-path:url(#SVGID_00000012461260586416322800000000657638348033237905_);fill:#00906A;}
	
		.st7{clip-path:url(#SVGID_00000157298930226232437940000008816887994212897691_);fill:none;stroke:#00906A;stroke-width:1.0129;stroke-miterlimit:10;}
	.st8{clip-path:url(#SVGID_00000175316283184157571220000017385572788676114586_);fill:#B43628;}
	
		.st9{clip-path:url(#SVGID_00000000185043391382803100000010635077816982875048_);fill:none;stroke:#B53528;stroke-width:1.0129;stroke-miterlimit:10;}
	.st10{clip-path:url(#SVGID_00000098918600007356022120000016526296246270968238_);fill:#B43628;}
	
		.st11{clip-path:url(#SVGID_00000142863445675808475520000005093830113325636481_);fill:none;stroke:#B53528;stroke-width:1.0129;stroke-miterlimit:10;}
	.st12{clip-path:url(#SVGID_00000103225539946829451620000017292575021046837433_);fill:#00906A;}
	
		.st13{clip-path:url(#SVGID_00000014619149855232861620000001644446785856661908_);fill:none;stroke:#00906A;stroke-width:1.0129;stroke-miterlimit:10;}
	.st14{clip-path:url(#SVGID_00000152239145018567450650000001956014266220795274_);fill:#B43628;}
	
		.st15{clip-path:url(#SVGID_00000033360155816718211400000014918389133405698945_);fill:none;stroke:#B43628;stroke-width:1.0129;stroke-miterlimit:10;}
	.st16{clip-path:url(#SVGID_00000142138536544527119680000010532808629371753124_);fill:#B43628;}
	
		.st17{clip-path:url(#SVGID_00000039104975044703779370000012638894049291648695_);fill:none;stroke:#B43628;stroke-width:1.0129;stroke-miterlimit:10;}
	.st18{clip-path:url(#SVGID_00000039855686103788931720000007078994014868189848_);fill:#00906A;}
	
		.st19{clip-path:url(#SVGID_00000056425145470577539490000014860702968560019085_);fill:none;stroke:#00906A;stroke-width:1.0129;stroke-miterlimit:10;}
	.st20{clip-path:url(#SVGID_00000037670032449827133670000013782815048284043905_);fill:#B43628;}
	
		.st21{clip-path:url(#SVGID_00000043453957161911509350000009164254106023445892_);fill:none;stroke:#B43628;stroke-width:1.0129;stroke-miterlimit:10;}
	
		.st22{clip-path:url(#SVGID_00000117656454262483156270000015425546500119273603_);fill:none;stroke:#B43628;stroke-width:3.2413;stroke-miterlimit:10;}
	
		.st23{clip-path:url(#SVGID_00000047778116090919741340000003949653517063999122_);fill:none;stroke:#B43628;stroke-width:3.2413;stroke-miterlimit:10;}
	
		.st24{clip-path:url(#SVGID_00000080886006750879552160000011576482431036439727_);fill:none;stroke:#00906A;stroke-width:3.2413;stroke-miterlimit:10;}
	
		.st25{clip-path:url(#SVGID_00000163073642527286739600000010722193674681448869_);fill:none;stroke:#00906A;stroke-width:3.2413;stroke-miterlimit:10;}
	
		.st26{clip-path:url(#SVGID_00000016784006885247493910000001115661925127759272_);fill:none;stroke:#B43628;stroke-width:3.2413;stroke-miterlimit:10;}
	.st27{clip-path:url(#SVGID_00000040565564308715066120000014289392523825506490_);fill:#B43628;}
	
		.st28{clip-path:url(#SVGID_00000037678524289109324920000007804611606897852840_);fill:none;stroke:#B43628;stroke-width:1.0129;stroke-miterlimit:10;}
	.st29{fill:#00906A;}
</style>
<g>
	<path d="M22,68.8c-1.7,1.5-4.5,2.3-8.4,2.3H0.5V26.3h12.4c3.8,0,6.7,0.8,8.7,2.3s2.9,4.1,2.9,7.7V61C24.6,64.7,23.7,67.3,22,68.8z
		 M17.7,32.3c-0.9-0.8-2-1.2-3.4-1.2H6.1v35.2h8.2c1.6,0,2.8-0.4,3.6-1.1c0.8-0.8,1.1-1.9,1.1-3.5V35.7C19,34.3,18.6,33.2,17.7,32.3
		z"/>
	<path d="M53.2,68.4c-2,1.8-4.8,2.7-8.5,2.7h-1.6c-3.7,0-6.6-0.9-8.5-2.7s-3-4.5-3-8.2V26.3h5.6v35.1c0,1.3,0.5,2.5,1.5,3.4
		s2.3,1.4,3.8,1.4h2.9c1.6,0,2.9-0.5,3.8-1.4c1-0.9,1.5-2.1,1.5-3.4V26.3h5.6v33.9C56.2,63.8,55.2,66.6,53.2,68.4z"/>
	<path d="M68.7,52.5v18.6h-5.6V26.3h12c3.6,0,6.4,0.8,8.2,2.4s2.8,4.1,2.8,7.6v6.1c0,4.8-1.9,7.8-5.8,9l8.9,19.6h-6.1L75,52.5
		L68.7,52.5L68.7,52.5z M79.5,32.2c-0.8-0.7-1.9-1.1-3.6-1.1h-7.2v16.6H76c1.6,0,2.8-0.4,3.6-1.1c0.8-0.8,1.1-1.9,1.1-3.5v-7.4
		C80.6,34.1,80.3,32.9,79.5,32.2z"/>
	<path d="M103.4,59.8l-2.5,11.3h-5.7L106,26.3h7.4L124,71.1h-5.7l-2.4-11.3C115.8,59.8,103.4,59.8,103.4,59.8z M114.8,55l-5.2-24.5
		L104.4,55H114.8z"/>
	<path class="st0" d="M182.5,26.3V31h-15.8v14.7h14.2v4.7h-14.2v16.1h15.8v4.7h-21.4V26.3H182.5z"/>
	<path class="st0" d="M208.2,68.4c-2,1.8-4.8,2.7-8.5,2.7h-9.1v-4.9h9.7c1.6,0,2.9-0.5,3.8-1.4c1-0.9,1.5-2.1,1.5-3.4v-6.7
		c0-1.3-0.3-2.3-1-3.1c-0.7-0.8-1.6-1.2-3-1.2h-1.9c-3.2,0-5.6-0.9-7.5-2.8c-1.8-1.9-2.8-4.5-2.8-8.1v-2.4c0-3.6,1-6.4,3-8.2
		c2-1.8,4.8-2.7,8.5-2.7h9.1v4.9h-9.8c-1.6,0-2.9,0.5-3.8,1.4c-1,0.9-1.5,2.1-1.5,3.4v4.9c0,1.3,0.4,2.4,1.3,3.3
		c0.9,0.9,2,1.3,3.3,1.3h1.9c3,0,5.4,0.9,7.1,2.6c1.7,1.8,2.5,4.4,2.5,7.9v4.2C211.1,63.8,210.1,66.6,208.2,68.4z"/>
	<path class="st0" d="M236.8,68.4c-2,1.8-4.8,2.7-8.5,2.7h-9.1v-4.9h9.7c1.6,0,2.9-0.5,3.8-1.4c1-0.9,1.5-2.1,1.5-3.4v-6.7
		c0-1.3-0.3-2.3-1-3.1c-0.7-0.8-1.6-1.2-3-1.2h-1.9c-3.2,0-5.6-0.9-7.5-2.8c-1.8-1.9-2.8-4.5-2.8-8.1v-2.4c0-3.6,1-6.4,3-8.2
		c2-1.8,4.8-2.7,8.5-2.7h9.1v4.9H229c-1.6,0-2.9,0.5-3.8,1.4c-1,0.9-1.5,2.1-1.5,3.4v4.9c0,1.3,0.4,2.4,1.3,3.3
		c0.9,0.9,2,1.3,3.3,1.3h1.9c3,0,5.4,0.9,7.1,2.6c1.7,1.8,2.5,4.4,2.5,7.9v4.2C239.8,63.8,238.8,66.6,236.8,68.4z"/>
</g>
<g class="st1">
	<g class="st2">
		<g>
			<defs>
				<rect id="SVGID_1_" x="210.3" y="-15.7" width="101.3" height="101.3"/>
			</defs>
			<clipPath id="SVGID_00000105427298344179036250000007425317949651691144_">
				<use xlink:href="#SVGID_1_"  style="overflow:visible;"/>
			</clipPath>
			<g style="clip-path:url(#SVGID_00000105427298344179036250000007425317949651691144_);">
				<g>
					<defs>
						<rect id="SVGID_00000096025901781151551990000011790938508893875082_" x="210.3" y="-15.7" width="101.3" height="101.3"/>
					</defs>
					<clipPath id="SVGID_00000014633717697894512870000005681467250140260286_">
						<use xlink:href="#SVGID_00000096025901781151551990000011790938508893875082_"  style="overflow:visible;"/>
					</clipPath>
					<path style="clip-path:url(#SVGID_00000014633717697894512870000005681467250140260286_);fill:#00906A;" d="M251,13.5
						c0,1-0.8,1.8-1.8,1.8c-1,0-1.8-0.8-1.8-1.8c0-1,0.8-1.8,1.8-1.8C250.2,11.7,251,12.5,251,13.5"/>
				</g>
				<g>
					<defs>
						<rect id="SVGID_00000010289033990242989170000009778056567833325984_" x="210.3" y="-15.7" width="101.3" height="101.3"/>
					</defs>
					<clipPath id="SVGID_00000049215070914973633350000010400942959582584224_">
						<use xlink:href="#SVGID_00000010289033990242989170000009778056567833325984_"  style="overflow:visible;"/>
					</clipPath>
					
						<path style="clip-path:url(#SVGID_00000049215070914973633350000010400942959582584224_);fill:none;stroke:#00906A;stroke-width:1.0129;stroke-miterlimit:10;" d="
						M251,13.5c0,1-0.8,1.8-1.8,1.8c-1,0-1.8-0.8-1.8-1.8c0-1,0.8-1.8,1.8-1.8C250.2,11.7,251,12.5,251,13.5z"/>
				</g>
				<g>
					<defs>
						<rect id="SVGID_00000179612060869702614180000014769389865587087251_" x="210.3" y="-15.7" width="101.3" height="101.3"/>
					</defs>
					<clipPath id="SVGID_00000105387039564069747140000000272911532299042967_">
						<use xlink:href="#SVGID_00000179612060869702614180000014769389865587087251_"  style="overflow:visible;"/>
					</clipPath>
					<path style="clip-path:url(#SVGID_00000105387039564069747140000000272911532299042967_);fill:#00906A;" d="M266.1,12.6
						c0,1-0.8,1.8-1.8,1.8c-1,0-1.8-0.8-1.8-1.8c0-1,0.8-1.8,1.8-1.8S266.1,11.6,266.1,12.6"/>
				</g>
				<g>
					<defs>
						<rect id="SVGID_00000070820553771192660320000000432520482861132681_" x="210.3" y="-15.7" width="101.3" height="101.3"/>
					</defs>
					<clipPath id="SVGID_00000115480061820593635440000014186517439457387404_">
						<use xlink:href="#SVGID_00000070820553771192660320000000432520482861132681_"  style="overflow:visible;"/>
					</clipPath>
					
						<path style="clip-path:url(#SVGID_00000115480061820593635440000014186517439457387404_);fill:none;stroke:#00906A;stroke-width:1.0129;stroke-miterlimit:10;" d="
						M266.1,12.6c0,1-0.8,1.8-1.8,1.8c-1,0-1.8-0.8-1.8-1.8c0-1,0.8-1.8,1.8-1.8S266.1,11.6,266.1,12.6z"/>
				</g>
				<g>
					<defs>
						<rect id="SVGID_00000146496837406414311070000006808358322765605786_" x="210.3" y="-15.7" width="101.3" height="101.3"/>
					</defs>
					<clipPath id="SVGID_00000005266214795808000590000015715756634755315094_">
						<use xlink:href="#SVGID_00000146496837406414311070000006808358322765605786_"  style="overflow:visible;"/>
					</clipPath>
					<path style="clip-path:url(#SVGID_00000005266214795808000590000015715756634755315094_);fill:#B43628;" d="M266.1,29.5
						c0,1-0.8,1.8-1.8,1.8c-1,0-1.8-0.8-1.8-1.8c0-1,0.8-1.8,1.8-1.8C265.3,27.7,266.1,28.5,266.1,29.5"/>
				</g>
				<g>
					<defs>
						<rect id="SVGID_00000150070744016059526020000012816805331233782671_" x="210.3" y="-15.7" width="101.3" height="101.3"/>
					</defs>
					<clipPath id="SVGID_00000083072034260894466040000001897157849842643351_">
						<use xlink:href="#SVGID_00000150070744016059526020000012816805331233782671_"  style="overflow:visible;"/>
					</clipPath>
					
						<path style="clip-path:url(#SVGID_00000083072034260894466040000001897157849842643351_);fill:none;stroke:#B53528;stroke-width:1.0129;stroke-miterlimit:10;" d="
						M266.1,29.5c0,1-0.8,1.8-1.8,1.8c-1,0-1.8-0.8-1.8-1.8c0-1,0.8-1.8,1.8-1.8C265.3,27.7,266.1,28.5,266.1,29.5z"/>
				</g>
				<g>
					<defs>
						<rect id="SVGID_00000005238676090930203860000008490689161641527426_" x="210.3" y="-15.7" width="101.3" height="101.3"/>
					</defs>
					<clipPath id="SVGID_00000066488136924292055430000007932957701902916737_">
						<use xlink:href="#SVGID_00000005238676090930203860000008490689161641527426_"  style="overflow:visible;"/>
					</clipPath>
					<path style="clip-path:url(#SVGID_00000066488136924292055430000007932957701902916737_);fill:#B43628;" d="M266.1,46.6
						c0,1-0.8,1.8-1.8,1.8c-1,0-1.8-0.8-1.8-1.8c0-1,0.8-1.8,1.8-1.8S266.1,45.6,266.1,46.6"/>
				</g>
				<g>
					<defs>
						<rect id="SVGID_00000072987306082968698590000005920862340330540465_" x="210.3" y="-15.7" width="101.3" height="101.3"/>
					</defs>
					<clipPath id="SVGID_00000029728748843323559240000005611036669996914086_">
						<use xlink:href="#SVGID_00000072987306082968698590000005920862340330540465_"  style="overflow:visible;"/>
					</clipPath>
					
						<path style="clip-path:url(#SVGID_00000029728748843323559240000005611036669996914086_);fill:none;stroke:#B53528;stroke-width:1.0129;stroke-miterlimit:10;" d="
						M266.1,46.6c0,1-0.8,1.8-1.8,1.8c-1,0-1.8-0.8-1.8-1.8c0-1,0.8-1.8,1.8-1.8S266.1,45.6,266.1,46.6z"/>
				</g>
				<g>
					<defs>
						<rect id="SVGID_00000113349621731713587220000013085402578598370704_" x="210.3" y="-15.7" width="101.3" height="101.3"/>
					</defs>
					<clipPath id="SVGID_00000173853165091973605820000003631200253935764098_">
						<use xlink:href="#SVGID_00000113349621731713587220000013085402578598370704_"  style="overflow:visible;"/>
					</clipPath>
					<path style="clip-path:url(#SVGID_00000173853165091973605820000003631200253935764098_);fill:#00906A;" d="M251,21.8
						c0,1-0.8,1.8-1.8,1.8c-1,0-1.8-0.8-1.8-1.8c0-1,0.8-1.8,1.8-1.8S251,20.8,251,21.8"/>
				</g>
				<g>
					<defs>
						<rect id="SVGID_00000054946271250408303210000001068066834753153983_" x="210.3" y="-15.7" width="101.3" height="101.3"/>
					</defs>
					<clipPath id="SVGID_00000182513180040975335240000009187348729616914614_">
						<use xlink:href="#SVGID_00000054946271250408303210000001068066834753153983_"  style="overflow:visible;"/>
					</clipPath>
					
						<path style="clip-path:url(#SVGID_00000182513180040975335240000009187348729616914614_);fill:none;stroke:#00906A;stroke-width:1.0129;stroke-miterlimit:10;" d="
						M251,21.8c0,1-0.8,1.8-1.8,1.8c-1,0-1.8-0.8-1.8-1.8c0-1,0.8-1.8,1.8-1.8S251,20.8,251,21.8z"/>
				</g>
				<g>
					<defs>
						<rect id="SVGID_00000023989891880386647450000016675904897416587665_" x="210.3" y="-15.7" width="101.3" height="101.3"/>
					</defs>
					<clipPath id="SVGID_00000022542037064641342830000012242900707453359017_">
						<use xlink:href="#SVGID_00000023989891880386647450000016675904897416587665_"  style="overflow:visible;"/>
					</clipPath>
					<path style="clip-path:url(#SVGID_00000022542037064641342830000012242900707453359017_);fill:#B43628;" d="M251,56.1
						c0,1-0.8,1.8-1.8,1.8c-1,0-1.8-0.8-1.8-1.8c0-1,0.8-1.8,1.8-1.8S251,55.1,251,56.1"/>
				</g>
				<g>
					<defs>
						<rect id="SVGID_00000147209120834545489910000000338358331871257009_" x="210.3" y="-15.7" width="101.3" height="101.3"/>
					</defs>
					<clipPath id="SVGID_00000062902435821603659040000015925180061403545218_">
						<use xlink:href="#SVGID_00000147209120834545489910000000338358331871257009_"  style="overflow:visible;"/>
					</clipPath>
					
						<path style="clip-path:url(#SVGID_00000062902435821603659040000015925180061403545218_);fill:none;stroke:#B43628;stroke-width:1.0129;stroke-miterlimit:10;" d="
						M251,56.1c0,1-0.8,1.8-1.8,1.8c-1,0-1.8-0.8-1.8-1.8c0-1,0.8-1.8,1.8-1.8S251,55.1,251,56.1z"/>
				</g>
				<g>
					<defs>
						<rect id="SVGID_00000065061277052333659460000006461815930641069242_" x="210.3" y="-15.7" width="101.3" height="101.3"/>
					</defs>
					<clipPath id="SVGID_00000094611103218906977200000005655680509644267949_">
						<use xlink:href="#SVGID_00000065061277052333659460000006461815930641069242_"  style="overflow:visible;"/>
					</clipPath>
					<path style="clip-path:url(#SVGID_00000094611103218906977200000005655680509644267949_);fill:#B43628;" d="M251,64.9
						c0,1-0.8,1.8-1.8,1.8c-1,0-1.8-0.8-1.8-1.8s0.8-1.8,1.8-1.8C250.2,63.1,251,63.9,251,64.9"/>
				</g>
				<g>
					<defs>
						<rect id="SVGID_00000154405831430328634670000005563460151420778897_" x="210.3" y="-15.7" width="101.3" height="101.3"/>
					</defs>
					<clipPath id="SVGID_00000045608758732120029580000006559427453450944938_">
						<use xlink:href="#SVGID_00000154405831430328634670000005563460151420778897_"  style="overflow:visible;"/>
					</clipPath>
					
						<path style="clip-path:url(#SVGID_00000045608758732120029580000006559427453450944938_);fill:none;stroke:#B43628;stroke-width:1.0129;stroke-miterlimit:10;" d="
						M251,64.9c0,1-0.8,1.8-1.8,1.8c-1,0-1.8-0.8-1.8-1.8s0.8-1.8,1.8-1.8C250.2,63.1,251,63.9,251,64.9z"/>
				</g>
				<g>
					<defs>
						<rect id="SVGID_00000155142855673017334600000006391871715065435780_" x="210.3" y="-15.7" width="101.3" height="101.3"/>
					</defs>
					<clipPath id="SVGID_00000121964285820079692110000008934032835303988668_">
						<use xlink:href="#SVGID_00000155142855673017334600000006391871715065435780_"  style="overflow:visible;"/>
					</clipPath>
					<path style="clip-path:url(#SVGID_00000121964285820079692110000008934032835303988668_);fill:#00906A;" d="M258.6,17
						c0,1-0.8,1.8-1.8,1.8c-1,0-1.8-0.8-1.8-1.8c0-1,0.8-1.8,1.8-1.8C257.8,15.2,258.6,16,258.6,17"/>
				</g>
				<g>
					<defs>
						<rect id="SVGID_00000118389574616689222930000016076138335240126398_" x="210.3" y="-15.7" width="101.3" height="101.3"/>
					</defs>
					<clipPath id="SVGID_00000109025111916305038900000010496745087009301376_">
						<use xlink:href="#SVGID_00000118389574616689222930000016076138335240126398_"  style="overflow:visible;"/>
					</clipPath>
					
						<path style="clip-path:url(#SVGID_00000109025111916305038900000010496745087009301376_);fill:none;stroke:#00906A;stroke-width:1.0129;stroke-miterlimit:10;" d="
						M258.6,17c0,1-0.8,1.8-1.8,1.8c-1,0-1.8-0.8-1.8-1.8c0-1,0.8-1.8,1.8-1.8C257.8,15.2,258.6,16,258.6,17z"/>
				</g>
				<g>
					<defs>
						<rect id="SVGID_00000077301859860411407520000010566847479262618267_" x="210.3" y="-15.7" width="101.3" height="101.3"/>
					</defs>
					<clipPath id="SVGID_00000029034055360223682270000007751398563369640845_">
						<use xlink:href="#SVGID_00000077301859860411407520000010566847479262618267_"  style="overflow:visible;"/>
					</clipPath>
					<path style="clip-path:url(#SVGID_00000029034055360223682270000007751398563369640845_);fill:#B43628;" d="M258.6,51.3
						c0,1-0.8,1.8-1.8,1.8c-1,0-1.8-0.8-1.8-1.8s0.8-1.8,1.8-1.8S258.6,50.3,258.6,51.3"/>
				</g>
				<g>
					<defs>
						<rect id="SVGID_00000115485504556511540050000005227895204252288141_" x="210.3" y="-15.7" width="101.3" height="101.3"/>
					</defs>
					<clipPath id="SVGID_00000047767433451012207630000016735389100625291935_">
						<use xlink:href="#SVGID_00000115485504556511540050000005227895204252288141_"  style="overflow:visible;"/>
					</clipPath>
					
						<path style="clip-path:url(#SVGID_00000047767433451012207630000016735389100625291935_);fill:none;stroke:#B43628;stroke-width:1.0129;stroke-miterlimit:10;" d="
						M258.6,51.3c0,1-0.8,1.8-1.8,1.8c-1,0-1.8-0.8-1.8-1.8s0.8-1.8,1.8-1.8S258.6,50.3,258.6,51.3z"/>
				</g>
				<g>
					<defs>
						<rect id="SVGID_00000125563494097282828280000004976711983129188285_" x="210.3" y="-15.7" width="101.3" height="101.3"/>
					</defs>
					<clipPath id="SVGID_00000056393565795370121590000000480225711276765862_">
						<use xlink:href="#SVGID_00000125563494097282828280000004976711983129188285_"  style="overflow:visible;"/>
					</clipPath>
					
						<polyline style="clip-path:url(#SVGID_00000056393565795370121590000000480225711276765862_);fill:none;stroke:#B43628;stroke-width:3.2413;stroke-miterlimit:10;" points="
						256.8,51.3 256.8,68.6 249.2,64.9 					"/>
				</g>
				<g>
					<defs>
						<rect id="SVGID_00000136411266431298035450000009664496990339033772_" x="210.3" y="-15.7" width="101.3" height="101.3"/>
					</defs>
					<clipPath id="SVGID_00000078008708102073034120000011280017998092740775_">
						<use xlink:href="#SVGID_00000136411266431298035450000009664496990339033772_"  style="overflow:visible;"/>
					</clipPath>
					
						<polyline style="clip-path:url(#SVGID_00000078008708102073034120000011280017998092740775_);fill:none;stroke:#B43628;stroke-width:3.2413;stroke-miterlimit:10;" points="
						264.3,29.5 275.8,39.5 264.3,60.5 264.3,46.6 					"/>
				</g>
				<g>
					<defs>
						<rect id="SVGID_00000120550399635790167440000010472377564230396311_" x="210.3" y="-15.7" width="101.3" height="101.3"/>
					</defs>
					<clipPath id="SVGID_00000126323509543450774070000017227872513854170544_">
						<use xlink:href="#SVGID_00000120550399635790167440000010472377564230396311_"  style="overflow:visible;"/>
					</clipPath>
					
						<polyline style="clip-path:url(#SVGID_00000126323509543450774070000017227872513854170544_);fill:none;stroke:#00906A;stroke-width:3.2413;stroke-miterlimit:10;" points="
						256.8,17 263,21.8 249.2,30.3 249.2,21.8 					"/>
				</g>
				<g>
					<defs>
						<rect id="SVGID_00000108987436249913477520000015646403237450692784_" x="210.3" y="-15.7" width="101.3" height="101.3"/>
					</defs>
					<clipPath id="SVGID_00000040566423707148542630000003233979844098256559_">
						<use xlink:href="#SVGID_00000108987436249913477520000015646403237450692784_"  style="overflow:visible;"/>
					</clipPath>
					
						<polyline style="clip-path:url(#SVGID_00000040566423707148542630000003233979844098256559_);fill:none;stroke:#00906A;stroke-width:3.2413;stroke-miterlimit:10;" points="
						249.2,13.5 264.3,3.7 264.3,12.6 					"/>
				</g>
				<g>
					<defs>
						<rect id="SVGID_00000102539535232016362510000012205970657310114224_" x="210.3" y="-15.7" width="101.3" height="101.3"/>
					</defs>
					<clipPath id="SVGID_00000068673441140075481950000013124249718290356895_">
						<use xlink:href="#SVGID_00000102539535232016362510000012205970657310114224_"  style="overflow:visible;"/>
					</clipPath>
					
						<polyline style="clip-path:url(#SVGID_00000068673441140075481950000013124249718290356895_);fill:none;stroke:#B43628;stroke-width:3.2413;stroke-miterlimit:10;" points="
						256.8,42.8 256.8,34.1 249.2,38.8 249.2,56.1 					"/>
				</g>
				<g>
					<defs>
						<rect id="SVGID_00000128447209305799844740000017724224276303133584_" x="210.3" y="-15.7" width="101.3" height="101.3"/>
					</defs>
					<clipPath id="SVGID_00000150103371786290847790000005208585838941440175_">
						<use xlink:href="#SVGID_00000128447209305799844740000017724224276303133584_"  style="overflow:visible;"/>
					</clipPath>
					<path style="clip-path:url(#SVGID_00000150103371786290847790000005208585838941440175_);fill:#B43628;" d="M258.5,42.5
						c0,1-0.8,1.8-1.8,1.8c-1,0-1.8-0.8-1.8-1.8s0.8-1.8,1.8-1.8C257.7,40.7,258.5,41.5,258.5,42.5"/>
				</g>
				<g>
					<defs>
						<rect id="SVGID_00000163756619076636988400000005475164442900044422_" x="210.3" y="-15.7" width="101.3" height="101.3"/>
					</defs>
					<clipPath id="SVGID_00000074404101376684822050000010159009148570185124_">
						<use xlink:href="#SVGID_00000163756619076636988400000005475164442900044422_"  style="overflow:visible;"/>
					</clipPath>
					
						<path style="clip-path:url(#SVGID_00000074404101376684822050000010159009148570185124_);fill:none;stroke:#B43628;stroke-width:1.0129;stroke-miterlimit:10;" d="
						M258.5,42.5c0,1-0.8,1.8-1.8,1.8c-1,0-1.8-0.8-1.8-1.8s0.8-1.8,1.8-1.8C257.7,40.7,258.5,41.5,258.5,42.5z"/>
				</g>
			</g>
		</g>
	</g>
</g>
<polygon class="st29" points="149.1,58.3 149.1,71.1 149.1,71.1 135.1,39.1 135.1,26.3 135.1,26.3 "/>
<rect x="130" y="26.3" width="5.1" height="44.8"/>
<rect x="149.1" y="26.3" width="5.2" height="44.8"/>
<g>
	<g>
		<path class="st29" d="M171.4,71.1v-40h-10.2v-4.9h25.9v4.9H177v40H171.4z"/>
		<path class="st29" d="M215.1,26.3V31h-15.8v14.7h14.2v4.7h-14.2v16.1h15.8v4.7h-21.4V26.3H215.1z"/>
		<path class="st29" d="M224.3,68.4c-2-1.8-3-4.5-3-8.2V37.2c0-3.6,1-6.3,3-8.2c2-1.8,4.8-2.7,8.5-2.7h9.1v4.9h-9.7
			c-1.6,0-2.9,0.5-3.8,1.4c-1,0.9-1.5,2.1-1.5,3.4v25.5c0,1.3,0.5,2.5,1.5,3.4c1,0.9,2.3,1.4,3.8,1.4h9.7v4.9h-9.1
			C229.1,71.1,226.3,70.2,224.3,68.4z"/>
		<path class="st29" d="M254,50.5v20.6h-5.6V26.3h5.6v19.5h13.2V26.3h5.6v44.8h-5.6V50.5H254z"/>
	</g>
</g>
</svg>
