<?xml version="1.0" encoding="utf-8"?>
<!-- Generator: Adobe Illustrator 27.7.0, SVG Export Plug-In . SVG Version: 6.00 Build 0)  -->
<svg version="1.1" id="Camada_1" xmlns="http://www.w3.org/2000/svg" xmlns:xlink="http://www.w3.org/1999/xlink" x="0px" y="0px"
	 viewBox="0 0 500 500" style="enable-background:new 0 0 500 500;" xml:space="preserve">
<style type="text/css">
	.st0{fill:#00906A;stroke:#00906A;stroke-width:5;stroke-miterlimit:10;}
	.st1{fill:#B43528;stroke:#B53528;stroke-width:5;stroke-miterlimit:10;}
	.st2{fill:#B43528;stroke:#B43528;stroke-width:5;stroke-miterlimit:10;}
	.st3{fill:none;stroke:#B43528;stroke-width:16;stroke-miterlimit:10;}
	.st4{fill:none;stroke:#00906A;stroke-width:16;stroke-miterlimit:10;}
</style>
<circle class="st0" cx="191.78" cy="144" r="8.87"/>
<circle class="st0" cx="266.48" cy="139.48" r="8.87"/>
<circle class="st1" cx="266.48" cy="222.91" r="8.87"/>
<circle class="st1" cx="266.48" cy="307.35" r="8.87"/>
<circle class="st0" cx="191.78" cy="184.83" r="8.87"/>
<circle class="st2" cx="191.78" cy="354.43" r="8.87"/>
<circle class="st2" cx="191.78" cy="397.7" r="8.87"/>
<circle class="st0" cx="229.42" cy="161.22" r="8.87"/>
<circle class="st2" cx="229.35" cy="330.61" r="8.87"/>
<polyline class="st3" points="229.35,330.61 229.35,416.3 191.78,397.7 "/>
<polyline class="st3" points="266.48,222.91 322.99,272.38 266.48,376.33 266.48,307.35 "/>
<polyline class="st4" points="229.42,161.22 259.94,184.83 191.78,227 191.78,184.83 "/>
<polyline class="st4" points="191.78,144 266.48,95.61 266.48,139.48 "/>
<polyline class="st3" points="229.17,288.86 229.42,245.91 191.78,269.13 191.78,354.43 "/>
<circle class="st2" cx="229.13" cy="287.35" r="8.87"/>
<g>
</g>
<g>
</g>
<g>
</g>
<g>
</g>
<g>
</g>
<g>
</g>
</svg>
