<?xml version="1.0" encoding="utf-8"?>
<!-- Generator: Adobe Illustrator 27.7.0, SVG Export Plug-In . SVG Version: 6.00 Build 0)  -->
<svg version="1.1" id="Camada_1" xmlns="http://www.w3.org/2000/svg" xmlns:xlink="http://www.w3.org/1999/xlink" x="0px" y="0px"
	 viewBox="0 0 500 500" style="enable-background:new 0 0 500 500;" xml:space="preserve">
<style type="text/css">
	.st0{fill:#00906A;stroke:#00906A;stroke-width:5;stroke-miterlimit:10;}
	.st1{fill:#B43528;stroke:#B53528;stroke-width:5;stroke-miterlimit:10;}
	.st2{fill:#B43528;stroke:#B43528;stroke-width:5;stroke-miterlimit:10;}
	.st3{fill:none;stroke:#B43528;stroke-width:16;stroke-miterlimit:10;}
	.st4{fill:none;stroke:#00906A;stroke-width:16;stroke-miterlimit:10;}
</style>
<circle class="st0" cx="20" cy="144" r="8.87"/>
<circle class="st0" cx="94.4" cy="139.48" r="8.87"/>
<circle class="st1" cx="94.4" cy="222.91" r="8.87"/>
<circle class="st1" cx="94.4" cy="307.35" r="8.87"/>
<circle class="st0" cx="20" cy="184.83" r="8.87"/>
<circle class="st2" cx="20" cy="354.43" r="8.87"/>
<circle class="st2" cx="20" cy="397.7" r="8.87"/>
<circle class="st2" cx="57.64" cy="287.35" r="8.87"/>
<circle class="st0" cx="57.64" cy="161.22" r="8.87"/>
<circle class="st2" cx="57.64" cy="330.61" r="8.87"/>
<polyline class="st3" points="57.57,330.61 57.57,416.3 20,397.7 "/>
<polyline class="st3" points="94.7,222.91 151.31,272.38 94.7,376.33 94.7,307.35 "/>
<polyline class="st4" points="57.64,161.22 88.16,184.83 20,227 20,184.83 "/>
<polyline class="st4" points="20,144 94.7,95.61 94.7,139.48 "/>
<polyline class="st3" points="57.39,288.86 57.64,245.91 20,269.13 20,354.43 "/>
</svg>
