<?xml version="1.0" encoding="utf-8"?>
<!-- Generator: Adobe Illustrator 27.7.0, SVG Export Plug-In . SVG Version: 6.00 Build 0)  -->
<svg version="1.1" id="Camada_1" xmlns="http://www.w3.org/2000/svg" xmlns:xlink="http://www.w3.org/1999/xlink" x="0px" y="0px"
	 viewBox="0 0 278.55 71.43" style="enable-background:new 0 0 278.55 71.43;" xml:space="preserve">
<style type="text/css">
	.st0{fill:#B53528;}
	.st1{clip-path:url(#SVGID_00000148633097357036615720000000014637964853636276_);}
	.st2{clip-path:url(#SVGID_00000150818295140745438840000015922017783729938367_);fill:#00906A;}
	
		.st3{clip-path:url(#SVGID_00000150818295140745438840000015922017783729938367_);fill:none;stroke:#00906A;stroke-width:1.0129;stroke-miterlimit:10;}
	.st4{clip-path:url(#SVGID_00000150818295140745438840000015922017783729938367_);fill:#B43628;}
	
		.st5{clip-path:url(#SVGID_00000150818295140745438840000015922017783729938367_);fill:none;stroke:#B53528;stroke-width:1.0129;stroke-miterlimit:10;}
	
		.st6{clip-path:url(#SVGID_00000150818295140745438840000015922017783729938367_);fill:none;stroke:#B43628;stroke-width:1.0129;stroke-miterlimit:10;}
	
		.st7{clip-path:url(#SVGID_00000150818295140745438840000015922017783729938367_);fill:none;stroke:#B43628;stroke-width:3.2413;stroke-miterlimit:10;}
	
		.st8{clip-path:url(#SVGID_00000150818295140745438840000015922017783729938367_);fill:none;stroke:#00906A;stroke-width:3.2413;stroke-miterlimit:10;}
</style>
<g>
	<path d="M22.05,68.8c-1.69,1.54-4.47,2.3-8.35,2.3H0.51V26.3h12.42c3.84,0,6.74,0.78,8.7,2.34c1.96,1.56,2.94,4.11,2.94,7.65v24.7
		C24.58,64.66,23.73,67.26,22.05,68.8z M17.73,32.35c-0.85-0.83-1.98-1.25-3.39-1.25H6.08v35.2h8.19c1.62,0,2.82-0.37,3.58-1.12
		c0.77-0.75,1.15-1.93,1.15-3.55V35.71C19.01,34.3,18.58,33.18,17.73,32.35z"/>
	<path d="M53.22,68.38c-1.98,1.81-4.83,2.72-8.54,2.72h-1.6c-3.71,0-6.56-0.91-8.54-2.72c-1.98-1.81-2.98-4.53-2.98-8.16V26.3h5.57
		v35.14c0,1.32,0.49,2.45,1.47,3.39c0.98,0.94,2.26,1.41,3.84,1.41h2.88c1.58,0,2.86-0.47,3.84-1.41c0.98-0.94,1.47-2.07,1.47-3.39
		V26.3h5.57v33.92C56.19,63.85,55.2,66.57,53.22,68.38z"/>
	<path d="M68.74,52.54V71.1h-5.57V26.3H75.2c3.63,0,6.37,0.8,8.22,2.4s2.78,4.13,2.78,7.58v6.14c0,4.82-1.92,7.83-5.76,9.02
		l8.9,19.65h-6.08l-8.26-18.56H68.74z M79.52,32.19c-0.75-0.73-1.93-1.09-3.55-1.09h-7.23v16.64h7.23c1.62,0,2.81-0.37,3.55-1.12
		c0.75-0.75,1.12-1.93,1.12-3.55v-7.36C80.64,34.09,80.27,32.91,79.52,32.19z"/>
	<path d="M103.36,59.77l-2.5,11.33h-5.7l10.82-44.8h7.36l10.62,44.8h-5.7l-2.43-11.33H103.36z M114.81,54.97l-5.25-24.45
		l-5.18,24.45H114.81z"/>
	<path class="st0" d="M182.53,26.3v4.67h-15.81v14.66h14.21v4.67h-14.21v16.13h15.81v4.67h-21.38V26.3H182.53z"/>
	<path class="st0" d="M208.16,68.38c-1.98,1.81-4.83,2.72-8.54,2.72h-9.09v-4.86h9.73c1.58,0,2.86-0.47,3.84-1.41
		c0.98-0.94,1.47-2.07,1.47-3.39v-6.66c0-1.28-0.33-2.31-0.99-3.1c-0.66-0.79-1.65-1.18-2.98-1.18h-1.92
		c-3.16,0-5.65-0.93-7.49-2.78c-1.83-1.86-2.75-4.55-2.75-8.1v-2.43c0-3.63,0.99-6.35,2.98-8.16c1.98-1.81,4.83-2.72,8.54-2.72h9.15
		v4.86h-9.79c-1.58,0-2.86,0.47-3.84,1.41c-0.98,0.94-1.47,2.07-1.47,3.39v4.86c0,1.32,0.43,2.42,1.28,3.3
		c0.85,0.88,1.96,1.31,3.33,1.31h1.92c3.03,0,5.39,0.88,7.07,2.62c1.69,1.75,2.53,4.4,2.53,7.94v4.22
		C211.13,63.85,210.14,66.57,208.16,68.38z"/>
	<path class="st0" d="M236.83,68.38c-1.98,1.81-4.83,2.72-8.54,2.72h-9.09v-4.86h9.73c1.58,0,2.86-0.47,3.84-1.41
		c0.98-0.94,1.47-2.07,1.47-3.39v-6.66c0-1.28-0.33-2.31-0.99-3.1c-0.66-0.79-1.65-1.18-2.98-1.18h-1.92
		c-3.16,0-5.65-0.93-7.49-2.78c-1.83-1.86-2.75-4.55-2.75-8.1v-2.43c0-3.63,0.99-6.35,2.98-8.16c1.98-1.81,4.83-2.72,8.54-2.72h9.15
		v4.86h-9.79c-1.58,0-2.86,0.47-3.84,1.41c-0.98,0.94-1.47,2.07-1.47,3.39v4.86c0,1.32,0.43,2.42,1.28,3.3
		c0.85,0.88,1.96,1.31,3.33,1.31h1.92c3.03,0,5.39,0.88,7.07,2.62c1.68,1.75,2.53,4.4,2.53,7.94v4.22
		C239.81,63.85,238.81,66.57,236.83,68.38z"/>
</g>
<g>
	<g>
		<defs>
			<rect id="SVGID_1_" x="210.33" y="-15.69" width="101.29" height="101.29"/>
		</defs>
		<clipPath id="SVGID_00000028310369693299493800000005592035831558037156_">
			<use xlink:href="#SVGID_1_"  style="overflow:visible;"/>
		</clipPath>
		<g style="clip-path:url(#SVGID_00000028310369693299493800000005592035831558037156_);">
			<defs>
				<rect id="SVGID_00000081606920054162264450000008878170798096575392_" x="210.33" y="-15.69" width="101.29" height="101.29"/>
			</defs>
			<clipPath id="SVGID_00000158021587612178634980000010045517848852274574_">
				<use xlink:href="#SVGID_00000081606920054162264450000008878170798096575392_"  style="overflow:visible;"/>
			</clipPath>
			<path style="clip-path:url(#SVGID_00000158021587612178634980000010045517848852274574_);fill:#00906A;" d="M250.98,13.48
				c0,0.99-0.8,1.8-1.8,1.8c-0.99,0-1.8-0.8-1.8-1.8c0-0.99,0.8-1.8,1.8-1.8C250.18,11.68,250.98,12.49,250.98,13.48"/>
			
				<path style="clip-path:url(#SVGID_00000158021587612178634980000010045517848852274574_);fill:none;stroke:#00906A;stroke-width:1.0129;stroke-miterlimit:10;" d="
				M250.98,13.48c0,0.99-0.8,1.8-1.8,1.8c-0.99,0-1.8-0.8-1.8-1.8c0-0.99,0.8-1.8,1.8-1.8C250.18,11.68,250.98,12.49,250.98,13.48z"
				/>
			<path style="clip-path:url(#SVGID_00000158021587612178634980000010045517848852274574_);fill:#00906A;" d="M266.11,12.56
				c0,0.99-0.8,1.8-1.8,1.8c-0.99,0-1.8-0.8-1.8-1.8c0-0.99,0.8-1.8,1.8-1.8C265.31,10.76,266.11,11.57,266.11,12.56"/>
			
				<path style="clip-path:url(#SVGID_00000158021587612178634980000010045517848852274574_);fill:none;stroke:#00906A;stroke-width:1.0129;stroke-miterlimit:10;" d="
				M266.11,12.56c0,0.99-0.8,1.8-1.8,1.8c-0.99,0-1.8-0.8-1.8-1.8c0-0.99,0.8-1.8,1.8-1.8C265.31,10.76,266.11,11.57,266.11,12.56z"
				/>
			<path style="clip-path:url(#SVGID_00000158021587612178634980000010045517848852274574_);fill:#B43628;" d="M266.11,29.46
				c0,0.99-0.8,1.8-1.8,1.8c-0.99,0-1.8-0.8-1.8-1.8c0-0.99,0.8-1.8,1.8-1.8C265.31,27.67,266.11,28.47,266.11,29.46"/>
			
				<path style="clip-path:url(#SVGID_00000158021587612178634980000010045517848852274574_);fill:none;stroke:#B53528;stroke-width:1.0129;stroke-miterlimit:10;" d="
				M266.11,29.46c0,0.99-0.8,1.8-1.8,1.8c-0.99,0-1.8-0.8-1.8-1.8c0-0.99,0.8-1.8,1.8-1.8C265.31,27.67,266.11,28.47,266.11,29.46z"
				/>
			<path style="clip-path:url(#SVGID_00000158021587612178634980000010045517848852274574_);fill:#B43628;" d="M266.11,46.57
				c0,0.99-0.8,1.8-1.8,1.8c-0.99,0-1.8-0.8-1.8-1.8c0-0.99,0.8-1.8,1.8-1.8C265.31,44.77,266.11,45.58,266.11,46.57"/>
			
				<path style="clip-path:url(#SVGID_00000158021587612178634980000010045517848852274574_);fill:none;stroke:#B53528;stroke-width:1.0129;stroke-miterlimit:10;" d="
				M266.11,46.57c0,0.99-0.8,1.8-1.8,1.8c-0.99,0-1.8-0.8-1.8-1.8c0-0.99,0.8-1.8,1.8-1.8C265.31,44.77,266.11,45.58,266.11,46.57z"
				/>
			<path style="clip-path:url(#SVGID_00000158021587612178634980000010045517848852274574_);fill:#00906A;" d="M250.98,21.75
				c0,0.99-0.8,1.8-1.8,1.8c-0.99,0-1.8-0.8-1.8-1.8c0-0.99,0.8-1.8,1.8-1.8C250.18,19.95,250.98,20.76,250.98,21.75"/>
			
				<path style="clip-path:url(#SVGID_00000158021587612178634980000010045517848852274574_);fill:none;stroke:#00906A;stroke-width:1.0129;stroke-miterlimit:10;" d="
				M250.98,21.75c0,0.99-0.8,1.8-1.8,1.8c-0.99,0-1.8-0.8-1.8-1.8c0-0.99,0.8-1.8,1.8-1.8C250.18,19.95,250.98,20.76,250.98,21.75z"
				/>
			<path style="clip-path:url(#SVGID_00000158021587612178634980000010045517848852274574_);fill:#B43628;" d="M250.98,56.11
				c0,0.99-0.8,1.8-1.8,1.8c-0.99,0-1.8-0.8-1.8-1.8c0-0.99,0.8-1.8,1.8-1.8C250.18,54.31,250.98,55.12,250.98,56.11"/>
			
				<path style="clip-path:url(#SVGID_00000158021587612178634980000010045517848852274574_);fill:none;stroke:#B43628;stroke-width:1.0129;stroke-miterlimit:10;" d="
				M250.98,56.11c0,0.99-0.8,1.8-1.8,1.8c-0.99,0-1.8-0.8-1.8-1.8c0-0.99,0.8-1.8,1.8-1.8C250.18,54.31,250.98,55.12,250.98,56.11z"
				/>
			<path style="clip-path:url(#SVGID_00000158021587612178634980000010045517848852274574_);fill:#B43628;" d="M250.98,64.87
				c0,0.99-0.8,1.8-1.8,1.8c-0.99,0-1.8-0.8-1.8-1.8s0.8-1.8,1.8-1.8C250.18,63.07,250.98,63.88,250.98,64.87"/>
			
				<path style="clip-path:url(#SVGID_00000158021587612178634980000010045517848852274574_);fill:none;stroke:#B43628;stroke-width:1.0129;stroke-miterlimit:10;" d="
				M250.98,64.87c0,0.99-0.8,1.8-1.8,1.8c-0.99,0-1.8-0.8-1.8-1.8s0.8-1.8,1.8-1.8C250.18,63.07,250.98,63.88,250.98,64.87z"/>
			<path style="clip-path:url(#SVGID_00000158021587612178634980000010045517848852274574_);fill:#00906A;" d="M258.61,16.97
				c0,0.99-0.8,1.8-1.8,1.8c-0.99,0-1.8-0.8-1.8-1.8c0-0.99,0.8-1.8,1.8-1.8C257.8,15.17,258.61,15.97,258.61,16.97"/>
			
				<path style="clip-path:url(#SVGID_00000158021587612178634980000010045517848852274574_);fill:none;stroke:#00906A;stroke-width:1.0129;stroke-miterlimit:10;" d="
				M258.61,16.97c0,0.99-0.8,1.8-1.8,1.8c-0.99,0-1.8-0.8-1.8-1.8c0-0.99,0.8-1.8,1.8-1.8C257.8,15.17,258.61,15.97,258.61,16.97z"
				/>
			<path style="clip-path:url(#SVGID_00000158021587612178634980000010045517848852274574_);fill:#B43628;" d="M258.59,51.28
				c0,0.99-0.8,1.8-1.8,1.8c-0.99,0-1.8-0.8-1.8-1.8s0.8-1.8,1.8-1.8C257.79,49.48,258.59,50.29,258.59,51.28"/>
			
				<path style="clip-path:url(#SVGID_00000158021587612178634980000010045517848852274574_);fill:none;stroke:#B43628;stroke-width:1.0129;stroke-miterlimit:10;" d="
				M258.59,51.28c0,0.99-0.8,1.8-1.8,1.8c-0.99,0-1.8-0.8-1.8-1.8s0.8-1.8,1.8-1.8C257.79,49.48,258.59,50.29,258.59,51.28z"/>
			
				<polyline style="clip-path:url(#SVGID_00000158021587612178634980000010045517848852274574_);fill:none;stroke:#B43628;stroke-width:3.2413;stroke-miterlimit:10;" points="
				256.8,51.28 256.8,68.64 249.19,64.87 			"/>
			
				<polyline style="clip-path:url(#SVGID_00000158021587612178634980000010045517848852274574_);fill:none;stroke:#B43628;stroke-width:3.2413;stroke-miterlimit:10;" points="
				264.32,29.46 275.77,39.49 264.32,60.54 264.32,46.57 			"/>
			
				<polyline style="clip-path:url(#SVGID_00000158021587612178634980000010045517848852274574_);fill:none;stroke:#00906A;stroke-width:3.2413;stroke-miterlimit:10;" points="
				256.81,16.97 262.99,21.75 249.18,30.29 249.18,21.75 			"/>
			
				<polyline style="clip-path:url(#SVGID_00000158021587612178634980000010045517848852274574_);fill:none;stroke:#00906A;stroke-width:3.2413;stroke-miterlimit:10;" points="
				249.18,13.48 264.32,3.67 264.32,12.56 			"/>
			
				<polyline style="clip-path:url(#SVGID_00000158021587612178634980000010045517848852274574_);fill:none;stroke:#B43628;stroke-width:3.2413;stroke-miterlimit:10;" points="
				256.76,42.82 256.81,34.12 249.19,38.83 249.19,56.11 			"/>
			<path style="clip-path:url(#SVGID_00000158021587612178634980000010045517848852274574_);fill:#B43628;" d="M258.55,42.52
				c0,0.99-0.8,1.8-1.8,1.8c-0.99,0-1.8-0.8-1.8-1.8s0.8-1.8,1.8-1.8C257.74,40.72,258.55,41.52,258.55,42.52"/>
			
				<path style="clip-path:url(#SVGID_00000158021587612178634980000010045517848852274574_);fill:none;stroke:#B43628;stroke-width:1.0129;stroke-miterlimit:10;" d="
				M258.55,42.52c0,0.99-0.8,1.8-1.8,1.8c-0.99,0-1.8-0.8-1.8-1.8s0.8-1.8,1.8-1.8C257.74,40.72,258.55,41.52,258.55,42.52z"/>
		</g>
	</g>
</g>
<g>
	<polygon class="st0" points="149.11,58.32 149.11,71.08 149.09,71.09 135.11,39.06 135.11,26.3 135.13,26.29 	"/>
	<rect x="129.98" y="26.3" width="5.13" height="44.8"/>
	<rect x="149.11" y="26.3" width="5.25" height="44.8"/>
</g>
<g>
</g>
<g>
</g>
<g>
</g>
<g>
</g>
<g>
</g>
<g>
</g>
</svg>
